<svg id="Calque_1" data-name="Calque 1" xmlns="http://www.w3.org/2000/svg" viewBox="0 0 660.7 382.64"><defs><style>.cls-1{fill:#565656;}.cls-2{fill:#ef6727;}.cls-3{fill:#ff863a;}</style></defs><title>logo - 1</title><path class="cls-1" d="M130.43,272.91l-9-21H92.84q-2.17,5-4.52,10.64t-4.4,10.38H69.65L107.11,187l37.72,85.88ZM116.8,240.55q-1.4-3.44-2.48-6.05t-2.1-5.16q-1-2.54-2.23-5.48t-2.87-7.26q-2.29,5.73-4.71,11.53t-5,12.42Z" transform="translate(-69.65 -108.68)"/><path class="cls-1" d="M193.38,272.91l-26.5-30.58h-2.93v30.58H150.31l-.13-77.73h21.41a45.48,45.48,0,0,1,12.87,1.66,27.28,27.28,0,0,1,9.3,4.59,21.62,21.62,0,0,1,6.05,8,24.53,24.53,0,0,1,2,9.81,19.22,19.22,0,0,1-2.48,10.32,26.06,26.06,0,0,1-6.56,7.52,21.74,21.74,0,0,1-3.83,2.1,34.2,34.2,0,0,1-6.5,2q3.06,3.82,6.82,8t7.45,8.35q3.69,4.21,7.26,8.16t6.24,7.26ZM175.15,231.5q6.62,0,9.75-3.06t3.38-8.54a17.77,17.77,0,0,0-1.27-6.56,9.49,9.49,0,0,0-3.25-4.08,13.22,13.22,0,0,0-5.16-2,46.72,46.72,0,0,0-7-.7h-7.65v25Z" transform="translate(-69.65 -108.68)"/><path class="cls-1" d="M264.86,206.52H244.35v66.39H230.71V206.52H209.3V195.18h55.56Z" transform="translate(-69.65 -108.68)"/><path class="cls-1" d="M288.18,272.91H274.54l-.13-77.73h13.76Z" transform="translate(-69.65 -108.68)"/><path class="cls-2" d="M302.7,181.55l52.37,67.66v-54h13.63v92.64L316.34,220v52.88H302.83Z" transform="translate(-69.65 -108.68)"/><path class="cls-2" d="M421.21,274.31a43.13,43.13,0,0,1-16.69-3.12,37.31,37.31,0,0,1-12.87-8.73h.13A39.8,39.8,0,0,1,383,249.53a41.29,41.29,0,0,1-3.12-15.35A39.17,39.17,0,0,1,383,218.69a40.63,40.63,0,0,1,8.79-12.93h-.13A37.38,37.38,0,0,1,404.51,197a43.13,43.13,0,0,1,16.69-3.12A42.65,42.65,0,0,1,437.83,197a38.91,38.91,0,0,1,12.94,8.73,44.92,44.92,0,0,1,8.66,12.93,37.84,37.84,0,0,1,3.19,15.48,38.63,38.63,0,0,1-3.12,15.42,42,42,0,0,1-8.6,12.87,38.69,38.69,0,0,1-13,8.73A43.14,43.14,0,0,1,421.21,274.31Zm-27.65-40.14a30.54,30.54,0,0,0,2,11.21,27.32,27.32,0,0,0,14.52,15.29,27.91,27.91,0,0,0,22.17,0,27.31,27.31,0,0,0,14.53-15.29,30.6,30.6,0,0,0,2-11.21,31.11,31.11,0,0,0-2-11.28,27.17,27.17,0,0,0-14.53-15.35,27.91,27.91,0,0,0-22.17,0A27.17,27.17,0,0,0,395.6,222.9,31.05,31.05,0,0,0,393.56,234.18Z" transform="translate(-69.65 -108.68)"/><path class="cls-2" d="M463.64,195.18H478l23.19,56.07L524,195.18h14.53L501.1,286.42Z" transform="translate(-69.65 -108.68)"/><path class="cls-2" d="M595.91,272.91H543l-.13-77.73H593.1v11.34H556.66v19.37H586.6v11.34H556.66v24.34h39.25Z" transform="translate(-69.65 -108.68)"/><polygon class="cls-3" points="610.3 22.15 545.15 382.64 660.7 22.15 610.3 22.15"/><path class="cls-2" d="M678.21,108.68H464.35l-2.6,22.84H652.87c-11,82.68-41,359.33-41,359.33s0-.17.05-.33h0c.56-4.3,64.4-370.89,65.4-377Z" transform="translate(-69.65 -108.68)"/><polygon class="cls-2" points="316.78 230.28 514.04 229.87 516.04 212.9 318.79 213.31 316.78 230.28"/><polygon class="cls-3" points="306 213.34 263.92 213.44 261.92 230.42 304 230.31 306 213.34"/><polygon class="cls-3" points="296.36 248.89 294.36 265.87 336.44 265.76 338.44 248.79 296.36 248.89"/><polygon class="cls-3" points="380.6 284.21 338.52 284.32 336.52 301.3 378.6 301.19 380.6 284.21"/><polygon class="cls-2" points="230 230.5 251.76 230.45 253.76 213.47 232 213.53 230 230.5"/><polygon class="cls-2" points="262.31 265.95 284.08 265.9 286.08 248.92 264.31 248.97 262.31 265.95"/><polygon class="cls-2" points="303.15 301.38 324.91 301.32 326.92 284.35 305.15 284.4 303.15 301.38"/><polygon class="cls-2" points="347.32 265.74 510.21 265.41 512.22 248.44 349.32 248.76 347.32 265.74"/><polygon class="cls-2" points="393.11 301.15 506.36 301.03 508.36 284.05 395.11 284.18 393.11 301.15"/></svg>