<?xml version="1.0" standalone="no"?>
<!DOCTYPE svg PUBLIC "-//W3C//DTD SVG 20010904//EN"
 "http://www.w3.org/TR/2001/REC-SVG-20010904/DTD/svg10.dtd">
<svg version="1.0" xmlns="http://www.w3.org/2000/svg"
 width="535.000000pt" height="417.000000pt" viewBox="0 0 535.000000 417.000000"
 preserveAspectRatio="xMidYMid meet">

<g transform="translate(0.000000,417.000000) scale(0.100000,-0.100000)"
fill="#000000" stroke="none">
<path d="M1350 4160 c-292 -28 -624 -108 -825 -199 -91 -42 -95 -52 -95 -259
l0 -169 -94 -5 c-117 -6 -184 -35 -250 -109 -88 -98 -81 37 -81 -1609 l0
-1455 27 -57 c35 -75 104 -141 174 -167 54 -21 69 -21 1140 -21 l1086 0 37
-29 c78 -61 119 -76 211 -75 72 0 93 4 135 26 28 14 61 38 74 52 l24 26 1092
0 c1254 0 1149 -8 1251 94 103 103 94 -51 94 1612 0 1431 0 1454 -20 1507 -28
76 -79 130 -156 168 -54 27 -81 33 -157 38 l-92 6 -2 175 c-2 110 -7 183 -15
198 -28 54 -335 159 -614 211 -216 39 -295 46 -559 45 -216 0 -284 -4 -404
-23 -221 -34 -410 -81 -572 -143 l-76 -29 -164 55 c-175 58 -336 96 -520 121
-136 19 -516 27 -649 15z m670 -224 c153 -24 340 -72 455 -115 l100 -38 3
-1539 c1 -846 0 -1544 -2 -1550 -2 -6 -53 6 -132 32 -268 88 -485 118 -839
118 -356 0 -581 -33 -852 -123 l-113 -38 0 1548 0 1548 28 14 c105 54 386 125
602 152 155 19 602 14 750 -9z m2140 -1 c146 -22 349 -73 465 -116 l90 -34 3
-1554 c2 -1477 1 -1553 -15 -1546 -533 217 -1370 217 -1906 0 -16 -7 -17 69
-15 1546 l3 1553 72 28 c157 60 354 107 557 133 157 20 591 14 746 -10z
m-3728 -2031 l3 -1416 33 -29 c37 -33 74 -37 130 -13 170 73 415 140 622 169
157 23 477 31 636 16 252 -24 493 -79 690 -157 62 -24 124 -44 139 -44 14 0
45 10 68 22 112 57 374 129 597 163 145 22 486 31 646 16 252 -24 532 -89 715
-166 99 -42 137 -44 176 -11 l28 24 5 1419 5 1418 67 3 c82 4 123 -15 144 -63
12 -29 14 -247 14 -1435 0 -1503 2 -1439 -50 -1485 -22 -20 -38 -20 -2397 -23
-1648 -1 -2387 1 -2415 8 -27 8 -45 21 -58 43 -20 31 -20 58 -18 1463 3 1416
3 1432 23 1454 28 32 51 39 127 39 l68 1 2 -1416z"/>
<path d="M3665 3401 c-168 -78 -164 -314 7 -385 134 -56 288 48 288 194 0 150
-160 253 -295 191z"/>
<path d="M3349 2641 c-23 -24 -29 -38 -29 -73 0 -76 46 -108 156 -108 l64 0 0
-535 0 -535 210 0 210 0 0 606 0 606 -34 34 -34 34 -257 0 -257 0 -29 -29z"/>
</g>
</svg>
